  0
SECTION
  2
HEADER
  9
$ACADVER
  1
AC1014
  9
$HANDSEED
  5
FFFF
  9
$MEASUREMENT
 70
     1
  0
ENDSEC
  0
SECTION
  2
TABLES
  0
TABLE
  2
VPORT
  5
8
330
0
100
AcDbSymbolTable
 70
     4
  0
VPORT
  5
2E
330
8
100
AcDbSymbolTableRecord
100
AcDbViewportTableRecord
  2
*ACTIVE
 70
     0
 10
0.0
 20
0.0
 11
1.0
 21
1.0
 12
210.0
 22
148.5
 13
0.0
 23
0.0
 14
10.0
 24
10.0
 15
10.0
 25
10.0
 16
0.0
 26
0.0
 36
1.0
 17
0.0
 27
0.0
 37
0.0
 40
341.0
 41
1.24
 42
50.0
 43
0.0
 44
0.0
 50
0.0
 51
0.0
 71
     0
 72
   100
 73
     1
 74
     3
 75
     0
 76
     0
 77
     0
 78
     0
  0
ENDTAB
  0
TABLE
  2
LTYPE
  5
5
330
0
100
AcDbSymbolTable
 70
     1
  0
LTYPE
  5
14
330
5
100
AcDbSymbolTableRecord
100
AcDbLinetypeTableRecord
  2
BYBLOCK
 70
     0
  3

 72
    65
 73
     0
 40
0.0
  0
LTYPE
  5
15
330
5
100
AcDbSymbolTableRecord
100
AcDbLinetypeTableRecord
  2
BYLAYER
 70
     0
  3

 72
    65
 73
     0
 40
0.0
  0
LTYPE
  5
16
330
5
100
AcDbSymbolTableRecord
100
AcDbLinetypeTableRecord
  2
CONTINUOUS
 70
     0
  3
Solid line
 72
    65
 73
     0
 40
0.0
  0
ENDTAB
  0
TABLE
  2
LAYER
  5
2
100
AcDbSymbolTable
 70
2
  0
LAYER
  5
50
100
AcDbSymbolTableRecord
100
AcDbLayerTableRecord
  2
0
 70
0
  6
CONTINUOUS
  0
LAYER
  5
51
100
AcDbSymbolTableRecord
100
AcDbLayerTableRecord
  2
Layer_1
 70
0
  6
CONTINUOUS
  0
ENDTAB
  0
TABLE
  2
STYLE
  5
3
330
0
100
AcDbSymbolTable
 70
     1
  0
STYLE
  5
11
330
3
100
AcDbSymbolTableRecord
100
AcDbTextStyleTableRecord
  2
STANDARD
 70
     0
 40
0.0
 41
1.0
 50
0.0
 71
     0
 42
2.5
  3
txt
  4

  0
ENDTAB
  0
TABLE
  2
VIEW
  5
6
330
0
100
AcDbSymbolTable
 70
     0
  0
ENDTAB
  0
TABLE
  2
UCS
  5
7
330
0
100
AcDbSymbolTable
 70
     0
  0
ENDTAB
  0
TABLE
  2
APPID
  5
9
330
0
100
AcDbSymbolTable
 70
     2
  0
APPID
  5
12
330
9
100
AcDbSymbolTableRecord
100
AcDbRegAppTableRecord
  2
ACAD
 70
     0
  0
ENDTAB
  0
TABLE
  2
DIMSTYLE
  5
A
330
0
100
AcDbSymbolTable
 70
     1
  0
DIMSTYLE
105
27
330
A
100
AcDbSymbolTableRecord
100
AcDbDimStyleTableRecord
  2
ISO-25
 70
     0
  3

  4

  5

  6

  7

 40
1.0
 41
2.5
 42
0.625
 43
3.75
 44
1.25
 45
0.0
 46
0.0
 47
0.0
 48
0.0
140
2.5
141
2.5
142
0.0
143
0.03937007874016
144
1.0
145
0.0
146
1.0
147
0.625
 71
     0
 72
     0
 73
     0
 74
     0
 75
     0
 76
     0
 77
     1
 78
     8
170
     0
171
     3
172
     1
173
     0
174
     0
175
     0
176
     0
177
     0
178
     0
270
     2
271
     2
272
     2
273
     2
274
     3
340
11
275
     0
280
     0
281
     0
282
     0
283
     0
284
     8
285
     0
286
     0
287
     3
288
     0
  0
ENDTAB
  0
TABLE
  2
BLOCK_RECORD
  5
1
330
0
100
AcDbSymbolTable
 70
     1
  0
BLOCK_RECORD
  5
1F
330
1
100
AcDbSymbolTableRecord
100
AcDbBlockTableRecord
  2
*MODEL_SPACE
  0
BLOCK_RECORD
  5
1B
330
1
100
AcDbSymbolTableRecord
100
AcDbBlockTableRecord
  2
*PAPER_SPACE
  0
ENDTAB
  0
ENDSEC
  0
SECTION
  2
BLOCKS
  0
BLOCK
  5
20
330
1F
100
AcDbEntity
  8
0
100
AcDbBlockBegin
  2
*MODEL_SPACE
 70
     0
 10
0.0
 20
0.0
 30
0.0
  3
*MODEL_SPACE
  1

  0
ENDBLK
  5
21
330
1F
100
AcDbEntity
  8
0
100
AcDbBlockEnd
  0
BLOCK
  5
1C
330
1B
100
AcDbEntity
 67
     1
  8
0
100
AcDbBlockBegin
  2
*PAPER_SPACE
  1

  0
ENDBLK
  5
1D
330
1B
100
AcDbEntity
 67
     1
  8
0
100
AcDbBlockEnd
  0
ENDSEC
  0
SECTION
  2
ENTITIES
  0
LWPOLYLINE
  5
100
100
AcDbEntity
  8
Layer_1
 62
7
100
AcDbPolyline
 90
201
 70
1
 10
6.770052
 20
68.364802
 30
0.0
 10
8.086743
 20
68.928456
 30
0.0
 10
9.463162
 20
69.311829
 30
0.0
 10
10.886049
 20
69.551159
 30
0.0
 10
12.342140
 20
69.682689
 30
0.0
 10
13.818175
 20
69.742656
 30
0.0
 10
15.300892
 20
69.767294
 30
0.0
 10
16.777030
 20
69.792863
 30
0.0
 10
18.233327
 20
69.855576
 30
0.0
 10
20.738129
 20
69.967437
 30
0.0
 10
23.598151
 20
70.019942
 30
0.0
 10
26.600968
 20
70.026800
 30
0.0
 10
29.534160
 20
70.001682
 30
0.0
 10
32.185303
 20
69.958307
 30
0.0
 10
34.341974
 20
69.910366
 30
0.0
 10
35.791755
 20
69.871558
 30
0.0
 10
36.322220
 20
69.855584
 30
0.0
 10
38.583331
 20
69.855584
 30
0.0
 10
40.844442
 20
69.855584
 30
0.0
 10
43.105555
 20
69.855584
 30
0.0
 10
45.366666
 20
69.855584
 30
0.0
 10
47.627777
 20
69.855584
 30
0.0
 10
49.888888
 20
69.855584
 30
0.0
 10
52.150002
 20
69.855584
 30
0.0
 10
54.411112
 20
69.855584
 30
0.0
 10
56.672223
 20
69.855584
 30
0.0
 10
58.933337
 20
69.855584
 30
0.0
 10
61.194448
 20
69.855584
 30
0.0
 10
63.455558
 20
69.855584
 30
0.0
 10
65.716672
 20
69.855584
 30
0.0
 10
67.977783
 20
69.855584
 30
0.0
 10
70.238897
 20
69.855584
 30
0.0
 10
72.500007
 20
69.855584
 30
0.0
 10
74.761118
 20
69.855584
 30
0.0
 10
77.022229
 20
69.855584
 30
0.0
 10
79.283343
 20
69.855584
 30
0.0
 10
81.544454
 20
69.855584
 30
0.0
 10
83.805564
 20
69.855584
 30
0.0
 10
86.066675
 20
69.855584
 30
0.0
 10
88.327789
 20
69.855584
 30
0.0
 10
90.588900
 20
69.855584
 30
0.0
 10
92.850010
 20
69.855584
 30
0.0
 10
95.111124
 20
69.855584
 30
0.0
 10
97.372235
 20
69.855584
 30
0.0
 10
99.633346
 20
69.855584
 30
0.0
 10
101.894459
 20
69.855584
 30
0.0
 10
104.155570
 20
69.855584
 30
0.0
 10
106.416684
 20
69.855584
 30
0.0
 10
108.677795
 20
69.855584
 30
0.0
 10
109.231086
 20
69.872659
 30
0.0
 10
110.740738
 20
69.911185
 30
0.0
 10
112.981418
 20
69.952076
 30
0.0
 10
115.727793
 20
69.976262
 30
0.0
 10
118.754533
 20
69.964663
 30
0.0
 10
121.836304
 20
69.898186
 30
0.0
 10
124.747776
 20
69.757760
 30
0.0
 10
127.263612
 20
69.524312
 30
0.0
 10
128.802466
 20
69.333987
 30
0.0
 10
130.313501
 20
69.144062
 30
0.0
 10
131.798444
 20
68.931250
 30
0.0
 10
133.259034
 20
68.672246
 30
0.0
 10
134.697004
 20
68.343759
 30
0.0
 10
136.114087
 20
67.922489
 30
0.0
 10
137.512016
 20
67.385143
 30
0.0
 10
138.892526
 20
66.708422
 30
0.0
 10
139.752922
 20
66.202641
 30
0.0
 10
140.547824
 20
65.662736
 30
0.0
 10
141.278760
 20
65.081572
 30
0.0
 10
141.947254
 20
64.452025
 30
0.0
 10
142.554836
 20
63.766959
 30
0.0
 10
143.103033
 20
63.019242
 30
0.0
 10
143.593371
 20
62.201748
 30
0.0
 10
144.027378
 20
61.307344
 30
0.0
 10
144.395292
 20
60.160929
 30
0.0
 10
144.645103
 20
58.796023
 30
0.0
 10
144.798090
 20
57.327091
 30
0.0
 10
144.875541
 20
55.868566
 30
0.0
 10
144.898739
 20
54.534897
 30
0.0
 10
144.888946
 20
53.440608
 30
0.0
 10
144.867469
 20
52.700085
 30
0.0
 10
144.855588
 20
52.427797
 30
0.0
 10
144.545010
 20
51.379963
 30
0.0
 10
144.234436
 20
50.332156
 30
0.0
 10
143.923859
 20
49.284322
 30
0.0
 10
143.613282
 20
48.236487
 30
0.0
 10
143.302708
 20
47.188681
 30
0.0
 10
142.992131
 20
46.140846
 30
0.0
 10
142.681556
 20
45.093039
 30
0.0
 10
142.370979
 20
44.045205
 30
0.0
 10
142.232524
 20
43.782004
 30
0.0
 10
141.850426
 20
43.064962
 30
0.0
 10
141.274594
 20
42.002988
 30
0.0
 10
140.554933
 20
40.705048
 30
0.0
 10
139.741351
 20
39.279995
 30
0.0
 10
138.883751
 20
37.836739
 30
0.0
 10
138.032041
 20
36.484217
 30
0.0
 10
137.236127
 20
35.331311
 30
0.0
 10
136.384767
 20
34.213994
 30
0.0
 10
135.501420
 20
33.120552
 30
0.0
 10
134.588380
 20
32.050591
 30
0.0
 10
133.647942
 20
31.003631
 30
0.0
 10
132.682401
 20
29.979277
 30
0.0
 10
131.694044
 20
28.977078
 30
0.0
 10
130.685173
 20
27.996582
 30
0.0
 10
129.658076
 20
27.037421
 30
0.0
 10
127.992765
 20
25.558718
 30
0.0
 10
126.285681
 20
24.128133
 30
0.0
 10
124.542852
 20
22.739487
 30
0.0
 10
122.770290
 20
21.386711
 30
0.0
 10
120.974019
 20
20.063654
 30
0.0
 10
119.160059
 20
18.764190
 30
0.0
 10
117.334425
 20
17.482195
 30
0.0
 10
115.503142
 20
16.211574
 30
0.0
 10
114.209647
 20
15.327965
 30
0.0
 10
112.905678
 20
14.459172
 30
0.0
 10
111.591350
 20
13.605732
 30
0.0
 10
110.266765
 20
12.768153
 30
0.0
 10
108.932037
 20
11.946858
 30
0.0
 10
107.587274
 20
11.142412
 30
0.0
 10
106.232579
 20
10.355294
 30
0.0
 10
104.868068
 20
9.585984
 30
0.0
 10
103.512959
 20
8.828472
 30
0.0
 10
102.155605
 20
8.068701
 30
0.0
 10
100.791933
 20
7.318357
 30
0.0
 10
99.417861
 20
6.589236
 30
0.0
 10
98.029316
 20
5.893050
 30
0.0
 10
96.622224
 20
5.241597
 30
0.0
 10
95.192500
 20
4.646616
 30
0.0
 10
93.736075
 20
4.119848
 30
0.0
 10
91.156739
 20
3.300613
 30
0.0
 10
88.547358
 20
2.552724
 30
0.0
 10
85.912212
 20
1.886567
 30
0.0
 10
83.255592
 20
1.312499
 30
0.0
 10
80.581777
 20
0.840877
 30
0.0
 10
77.895052
 20
0.482088
 30
0.0
 10
75.199703
 20
0.246517
 30
0.0
 10
72.500013
 20
0.144466
 30
0.0
 10
70.442424
 20
0.185021
 30
0.0
 10
68.390211
 20
0.343602
 30
0.0
 10
66.344154
 20
0.602682
 30
0.0
 10
64.305016
 20
0.944848
 30
0.0
 10
62.273578
 20
1.352603
 30
0.0
 10
60.250609
 20
1.808476
 30
0.0
 10
58.236880
 20
2.294999
 30
0.0
 10
56.233167
 20
2.794702
 30
0.0
 10
53.851531
 20
3.431988
 30
0.0
 10
51.443611
 20
4.149227
 30
0.0
 10
49.033856
 20
4.927794
 30
0.0
 10
46.646702
 20
5.749089
 30
0.0
 10
44.306597
 20
6.594457
 30
0.0
 10
42.037982
 20
7.445329
 30
0.0
 10
39.865300
 20
8.283077
 30
0.0
 10
37.812991
 20
9.089047
 30
0.0
 10
35.040996
 20
10.320214
 30
0.0
 10
32.368246
 20
11.763978
 30
0.0
 10
29.789697
 20
13.392259
 30
0.0
 10
27.300307
 20
15.177004
 30
0.0
 10
24.895032
 20
17.090160
 30
0.0
 10
22.568830
 20
19.103647
 30
0.0
 10
20.316658
 20
21.189410
 30
0.0
 10
18.133471
 20
23.319369
 30
0.0
 10
16.256737
 20
25.297380
 30
0.0
 10
14.483568
 20
27.369569
 30
0.0
 10
12.800747
 20
29.521372
 30
0.0
 10
11.195057
 20
31.738143
 30
0.0
 10
9.653283
 20
34.005319
 30
0.0
 10
8.162208
 20
36.308252
 30
0.0
 10
6.708617
 20
38.632380
 30
0.0
 10
5.279293
 20
40.963084
 30
0.0
 10
4.639703
 20
41.988793
 30
0.0
 10
4.100390
 20
42.818244
 30
0.0
 10
3.643428
 20
43.499528
 30
0.0
 10
3.250892
 20
44.080624
 30
0.0
 10
2.904856
 20
44.609593
 30
0.0
 10
2.587392
 20
45.134498
 30
0.0
 10
2.280577
 20
45.703345
 30
0.0
 10
1.966484
 20
46.364168
 30
0.0
 10
1.640535
 20
47.177730
 30
0.0
 10
1.317885
 20
48.124219
 30
0.0
 10
1.010910
 20
49.129184
 30
0.0
 10
0.731990
 20
50.118288
 30
0.0
 10
0.493505
 20
51.017110
 30
0.0
 10
0.307832
 20
51.751226
 30
0.0
 10
0.187350
 20
52.246244
 30
0.0
 10
0.144439
 20
52.427797
 30
0.0
 10
0.136819
 20
52.698307
 30
0.0
 10
0.125705
 20
53.434569
 30
0.0
 10
0.128724
 20
54.523608
 30
0.0
 10
0.163499
 20
55.852508
 30
0.0
 10
0.247654
 20
57.308266
 30
0.0
 10
0.398813
 20
58.777953
 30
0.0
 10
0.634601
 20
60.148633
 30
0.0
 10
0.972642
 20
61.307344
 30
0.0
 10
1.443030
 20
62.423025
 30
0.0
 10
1.970628
 20
63.482862
 30
0.0
 10
2.563158
 20
64.481424
 30
0.0
 10
3.228343
 20
65.413274
 30
0.0
 10
3.973904
 20
66.272976
 30
0.0
 10
4.807563
 20
67.055090
 30
0.0
 10
5.737041
 20
67.754188
 30
0.0
 10
6.770052
 20
68.364802
 30
0.0
  0
LWPOLYLINE
  5
101
100
AcDbEntity
  8
Layer_1
 62
7
100
AcDbPolyline
 90
33
 70
1
 10
12.415964
 20
58.439998
 30
0.0
 10
12.396708
 20
58.248970
 30
0.0
 10
12.341477
 20
58.071046
 30
0.0
 10
12.254084
 20
57.910035
 30
0.0
 10
12.138341
 20
57.769754
 30
0.0
 10
11.998059
 20
57.654009
 30
0.0
 10
11.837050
 20
57.566616
 30
0.0
 10
11.659126
 20
57.511385
 30
0.0
 10
11.468097
 20
57.492138
 30
0.0
 10
11.277069
 20
57.511385
 30
0.0
 10
11.099144
 20
57.566616
 30
0.0
 10
10.938135
 20
57.654009
 30
0.0
 10
10.797853
 20
57.769754
 30
0.0
 10
10.682110
 20
57.910035
 30
0.0
 10
10.594718
 20
58.071046
 30
0.0
 10
10.539487
 20
58.248970
 30
0.0
 10
10.520231
 20
58.439998
 30
0.0
 10
10.539487
 20
58.631026
 30
0.0
 10
10.594718
 20
58.808950
 30
0.0
 10
10.682111
 20
58.969958
 30
0.0
 10
10.797854
 20
59.110242
 30
0.0
 10
10.938136
 20
59.225984
 30
0.0
 10
11.099145
 20
59.313377
 30
0.0
 10
11.277069
 20
59.368608
 30
0.0
 10
11.468097
 20
59.387855
 30
0.0
 10
11.659125
 20
59.368608
 30
0.0
 10
11.837050
 20
59.313377
 30
0.0
 10
11.998058
 20
59.225984
 30
0.0
 10
12.138340
 20
59.110239
 30
0.0
 10
12.254083
 20
58.969958
 30
0.0
 10
12.341476
 20
58.808950
 30
0.0
 10
12.396707
 20
58.631026
 30
0.0
 10
12.415964
 20
58.439998
 30
0.0
  0
LWPOLYLINE
  5
102
100
AcDbEntity
  8
Layer_1
 62
7
100
AcDbPolyline
 90
33
 70
1
 10
20.307451
 20
59.440004
 30
0.0
 10
20.247734
 20
58.847623
 30
0.0
 10
20.076462
 20
58.295876
 30
0.0
 10
19.805456
 20
57.796582
 30
0.0
 10
19.446534
 20
57.361565
 30
0.0
 10
19.011518
 20
57.002643
 30
0.0
 10
18.512226
 20
56.731639
 30
0.0
 10
17.960479
 20
56.560367
 30
0.0
 10
17.368096
 20
56.500649
 30
0.0
 10
16.775713
 20
56.560367
 30
0.0
 10
16.223966
 20
56.731639
 30
0.0
 10
15.724675
 20
57.002646
 30
0.0
 10
15.289658
 20
57.361565
 30
0.0
 10
14.930736
 20
57.796582
 30
0.0
 10
14.659730
 20
58.295876
 30
0.0
 10
14.488458
 20
58.847623
 30
0.0
 10
14.428741
 20
59.440004
 30
0.0
 10
14.488458
 20
60.032386
 30
0.0
 10
14.659730
 20
60.584133
 30
0.0
 10
14.930737
 20
61.083427
 30
0.0
 10
15.289658
 20
61.518444
 30
0.0
 10
15.724675
 20
61.877363
 30
0.0
 10
16.223966
 20
62.148370
 30
0.0
 10
16.775713
 20
62.319642
 30
0.0
 10
17.368096
 20
62.379360
 30
0.0
 10
17.960479
 20
62.319642
 30
0.0
 10
18.512226
 20
62.148370
 30
0.0
 10
19.011518
 20
61.877363
 30
0.0
 10
19.446534
 20
61.518444
 30
0.0
 10
19.805456
 20
61.083427
 30
0.0
 10
20.076462
 20
60.584133
 30
0.0
 10
20.247734
 20
60.032386
 30
0.0
 10
20.307451
 20
59.440004
 30
0.0
  0
LWPOLYLINE
  5
103
100
AcDbEntity
  8
Layer_1
 62
7
100
AcDbPolyline
 90
33
 70
1
 10
18.817405
 20
42.140000
 30
0.0
 10
18.787963
 20
41.847900
 30
0.0
 10
18.703515
 20
41.575866
 30
0.0
 10
18.569891
 20
41.329683
 30
0.0
 10
18.392917
 20
41.115166
 30
0.0
 10
18.178423
 20
40.938184
 30
0.0
 10
17.932236
 20
40.804580
 30
0.0
 10
17.660184
 20
40.720111
 30
0.0
 10
17.368096
 20
40.690676
 30
0.0
 10
17.076008
 20
40.720111
 30
0.0
 10
16.803956
 20
40.804580
 30
0.0
 10
16.557769
 20
40.938184
 30
0.0
 10
16.343275
 20
41.115166
 30
0.0
 10
16.166301
 20
41.329683
 30
0.0
 10
16.032677
 20
41.575866
 30
0.0
 10
15.948230
 20
41.847900
 30
0.0
 10
15.918788
 20
42.140000
 30
0.0
 10
15.948235
 20
42.432071
 30
0.0
 10
16.032686
 20
42.704134
 30
0.0
 10
16.166312
 20
42.950316
 30
0.0
 10
16.343285
 20
43.164805
 30
0.0
 10
16.557778
 20
43.341786
 30
0.0
 10
16.803963
 20
43.475390
 30
0.0
 10
17.076012
 20
43.559860
 30
0.0
 10
17.368096
 20
43.589295
 30
0.0
 10
17.660180
 20
43.559860
 30
0.0
 10
17.932229
 20
43.475390
 30
0.0
 10
18.178414
 20
43.341786
 30
0.0
 10
18.392907
 20
43.164805
 30
0.0
 10
18.569881
 20
42.950316
 30
0.0
 10
18.703507
 20
42.704134
 30
0.0
 10
18.787957
 20
42.432071
 30
0.0
 10
18.817405
 20
42.140000
 30
0.0
  0
LWPOLYLINE
  5
104
100
AcDbEntity
  8
Layer_1
 62
7
100
AcDbPolyline
 90
33
 70
1
 10
3.921154
 20
61.139953
 30
0.0
 10
4.207890
 20
61.139953
 30
0.0
 10
4.494625
 20
61.139953
 30
0.0
 10
4.781361
 20
61.139953
 30
0.0
 10
5.068096
 20
61.139953
 30
0.0
 10
5.354832
 20
61.139953
 30
0.0
 10
5.641567
 20
61.139953
 30
0.0
 10
5.928303
 20
61.139953
 30
0.0
 10
6.215038
 20
61.139953
 30
0.0
 10
6.215038
 20
60.714963
 30
0.0
 10
6.215038
 20
60.289973
 30
0.0
 10
6.215038
 20
59.864986
 30
0.0
 10
6.215038
 20
59.439996
 30
0.0
 10
6.215038
 20
59.015006
 30
0.0
 10
6.215038
 20
58.590019
 30
0.0
 10
6.215038
 20
58.165029
 30
0.0
 10
6.215038
 20
57.740039
 30
0.0
 10
5.928303
 20
57.740039
 30
0.0
 10
5.641567
 20
57.740039
 30
0.0
 10
5.354832
 20
57.740039
 30
0.0
 10
5.068096
 20
57.740039
 30
0.0
 10
4.781361
 20
57.740039
 30
0.0
 10
4.494625
 20
57.740039
 30
0.0
 10
4.207890
 20
57.740039
 30
0.0
 10
3.921154
 20
57.740039
 30
0.0
 10
3.921154
 20
58.165029
 30
0.0
 10
3.921154
 20
58.590019
 30
0.0
 10
3.921154
 20
59.015006
 30
0.0
 10
3.921154
 20
59.439996
 30
0.0
 10
3.921154
 20
59.864986
 30
0.0
 10
3.921154
 20
60.289973
 30
0.0
 10
3.921154
 20
60.714963
 30
0.0
 10
3.921154
 20
61.139953
 30
0.0
  0
LWPOLYLINE
  5
105
100
AcDbEntity
  8
Layer_1
 62
7
100
AcDbPolyline
 90
33
 70
1
 10
28.521113
 20
61.136990
 30
0.0
 10
28.807859
 20
61.136990
 30
0.0
 10
29.094605
 20
61.136990
 30
0.0
 10
29.381351
 20
61.136990
 30
0.0
 10
29.668097
 20
61.136990
 30
0.0
 10
29.954844
 20
61.136990
 30
0.0
 10
30.241590
 20
61.136990
 30
0.0
 10
30.528336
 20
61.136990
 30
0.0
 10
30.815082
 20
61.136990
 30
0.0
 10
30.815082
 20
60.712745
 30
0.0
 10
30.815082
 20
60.288497
 30
0.0
 10
30.815082
 20
59.864249
 30
0.0
 10
30.815082
 20
59.440004
 30
0.0
 10
30.815082
 20
59.015757
 30
0.0
 10
30.815082
 20
58.591512
 30
0.0
 10
30.815082
 20
58.167267
 30
0.0
 10
30.815082
 20
57.743019
 30
0.0
 10
30.528336
 20
57.743019
 30
0.0
 10
30.241590
 20
57.743019
 30
0.0
 10
29.954844
 20
57.743019
 30
0.0
 10
29.668097
 20
57.743019
 30
0.0
 10
29.381351
 20
57.743019
 30
0.0
 10
29.094605
 20
57.743019
 30
0.0
 10
28.807859
 20
57.743019
 30
0.0
 10
28.521113
 20
57.743019
 30
0.0
 10
28.521113
 20
58.167267
 30
0.0
 10
28.521113
 20
58.591512
 30
0.0
 10
28.521113
 20
59.015757
 30
0.0
 10
28.521113
 20
59.440004
 30
0.0
 10
28.521113
 20
59.864249
 30
0.0
 10
28.521113
 20
60.288497
 30
0.0
 10
28.521113
 20
60.712745
 30
0.0
 10
28.521113
 20
61.136990
 30
0.0
  0
LWPOLYLINE
  5
106
100
AcDbEntity
  8
Layer_1
 62
7
100
AcDbPolyline
 90
33
 70
1
 10
12.415964
 20
46.640005
 30
0.0
 10
12.396708
 20
46.448968
 30
0.0
 10
12.341477
 20
46.271056
 30
0.0
 10
12.254085
 20
46.110048
 30
0.0
 10
12.138342
 20
45.969755
 30
0.0
 10
11.998060
 20
45.854016
 30
0.0
 10
11.837051
 20
45.766612
 30
0.0
 10
11.659126
 20
45.711381
 30
0.0
 10
11.468097
 20
45.692190
 30
0.0
 10
11.277068
 20
45.711381
 30
0.0
 10
11.099143
 20
45.766612
 30
0.0
 10
10.938134
 20
45.854016
 30
0.0
 10
10.797852
 20
45.969755
 30
0.0
 10
10.682109
 20
46.110048
 30
0.0
 10
10.594716
 20
46.271056
 30
0.0
 10
10.539486
 20
46.448968
 30
0.0
 10
10.520230
 20
46.640005
 30
0.0
 10
10.539489
 20
46.831041
 30
0.0
 10
10.594720
 20
47.008954
 30
0.0
 10
10.682112
 20
47.169962
 30
0.0
 10
10.797855
 20
47.310254
 30
0.0
 10
10.938136
 20
47.425994
 30
0.0
 10
11.099145
 20
47.513398
 30
0.0
 10
11.277069
 20
47.568629
 30
0.0
 10
11.468098
 20
47.587820
 30
0.0
 10
11.659127
 20
47.568629
 30
0.0
 10
11.837051
 20
47.513398
 30
0.0
 10
11.998060
 20
47.425994
 30
0.0
 10
12.138341
 20
47.310254
 30
0.0
 10
12.254084
 20
47.169962
 30
0.0
 10
12.341477
 20
47.008954
 30
0.0
 10
12.396708
 20
46.831041
 30
0.0
 10
12.415964
 20
46.640005
 30
0.0
  0
LWPOLYLINE
  5
107
100
AcDbEntity
  8
Layer_1
 62
7
100
AcDbPolyline
 90
33
 70
1
 10
24.215963
 20
46.640005
 30
0.0
 10
24.196707
 20
46.448968
 30
0.0
 10
24.141476
 20
46.271056
 30
0.0
 10
24.054084
 20
46.110048
 30
0.0
 10
23.938341
 20
45.969755
 30
0.0
 10
23.798059
 20
45.854016
 30
0.0
 10
23.637050
 20
45.766612
 30
0.0
 10
23.459125
 20
45.711381
 30
0.0
 10
23.268096
 20
45.692190
 30
0.0
 10
23.077067
 20
45.711381
 30
0.0
 10
22.899142
 20
45.766612
 30
0.0
 10
22.738133
 20
45.854016
 30
0.0
 10
22.597851
 20
45.969755
 30
0.0
 10
22.482108
 20
46.110048
 30
0.0
 10
22.394716
 20
46.271056
 30
0.0
 10
22.339485
 20
46.448968
 30
0.0
 10
22.320229
 20
46.640005
 30
0.0
 10
22.339488
 20
46.831041
 30
0.0
 10
22.394719
 20
47.008954
 30
0.0
 10
22.482112
 20
47.169962
 30
0.0
 10
22.597854
 20
47.310254
 30
0.0
 10
22.738136
 20
47.425994
 30
0.0
 10
22.899144
 20
47.513398
 30
0.0
 10
23.077069
 20
47.568629
 30
0.0
 10
23.268097
 20
47.587820
 30
0.0
 10
23.459126
 20
47.568629
 30
0.0
 10
23.637051
 20
47.513398
 30
0.0
 10
23.798059
 20
47.425994
 30
0.0
 10
23.938341
 20
47.310254
 30
0.0
 10
24.054083
 20
47.169962
 30
0.0
 10
24.141476
 20
47.008954
 30
0.0
 10
24.196707
 20
46.831041
 30
0.0
 10
24.215963
 20
46.640005
 30
0.0
  0
LWPOLYLINE
  5
108
100
AcDbEntity
  8
Layer_1
 62
7
100
AcDbPolyline
 90
33
 70
1
 10
24.215963
 20
58.439998
 30
0.0
 10
24.196707
 20
58.248970
 30
0.0
 10
24.141476
 20
58.071046
 30
0.0
 10
24.054084
 20
57.910035
 30
0.0
 10
23.938341
 20
57.769754
 30
0.0
 10
23.798059
 20
57.654009
 30
0.0
 10
23.637050
 20
57.566616
 30
0.0
 10
23.459125
 20
57.511385
 30
0.0
 10
23.268097
 20
57.492138
 30
0.0
 10
23.077068
 20
57.511385
 30
0.0
 10
22.899144
 20
57.566616
 30
0.0
 10
22.738135
 20
57.654009
 30
0.0
 10
22.597853
 20
57.769754
 30
0.0
 10
22.482110
 20
57.910035
 30
0.0
 10
22.394717
 20
58.071046
 30
0.0
 10
22.339486
 20
58.248970
 30
0.0
 10
22.320230
 20
58.439998
 30
0.0
 10
22.339489
 20
58.631026
 30
0.0
 10
22.394720
 20
58.808950
 30
0.0
 10
22.482113
 20
58.969958
 30
0.0
 10
22.597856
 20
59.110239
 30
0.0
 10
22.738138
 20
59.225984
 30
0.0
 10
22.899147
 20
59.313377
 30
0.0
 10
23.077071
 20
59.368608
 30
0.0
 10
23.268099
 20
59.387855
 30
0.0
 10
23.459127
 20
59.368608
 30
0.0
 10
23.637052
 20
59.313377
 30
0.0
 10
23.798060
 20
59.225984
 30
0.0
 10
23.938342
 20
59.110239
 30
0.0
 10
24.054085
 20
58.969958
 30
0.0
 10
24.141478
 20
58.808950
 30
0.0
 10
24.196709
 20
58.631026
 30
0.0
 10
24.215963
 20
58.439998
 30
0.0
  0
LWPOLYLINE
  5
109
100
AcDbEntity
  8
Layer_1
 62
7
100
AcDbPolyline
 90
33
 70
1
 10
122.415874
 20
58.440005
 30
0.0
 10
122.396618
 20
58.248978
 30
0.0
 10
122.341387
 20
58.071053
 30
0.0
 10
122.253995
 20
57.910043
 30
0.0
 10
122.138252
 20
57.769761
 30
0.0
 10
121.997969
 20
57.654016
 30
0.0
 10
121.836960
 20
57.566624
 30
0.0
 10
121.659036
 20
57.511393
 30
0.0
 10
121.468007
 20
57.492145
 30
0.0
 10
121.276978
 20
57.511393
 30
0.0
 10
121.099053
 20
57.566624
 30
0.0
 10
120.938044
 20
57.654016
 30
0.0
 10
120.797762
 20
57.769761
 30
0.0
 10
120.682019
 20
57.910043
 30
0.0
 10
120.594626
 20
58.071053
 30
0.0
 10
120.539395
 20
58.248978
 30
0.0
 10
120.520139
 20
58.440005
 30
0.0
 10
120.539395
 20
58.631033
 30
0.0
 10
120.594627
 20
58.808957
 30
0.0
 10
120.682020
 20
58.969965
 30
0.0
 10
120.797763
 20
59.110249
 30
0.0
 10
120.938045
 20
59.225991
 30
0.0
 10
121.099054
 20
59.313384
 30
0.0
 10
121.276978
 20
59.368615
 30
0.0
 10
121.468007
 20
59.387863
 30
0.0
 10
121.659035
 20
59.368615
 30
0.0
 10
121.836959
 20
59.313384
 30
0.0
 10
121.997968
 20
59.225991
 30
0.0
 10
122.138250
 20
59.110246
 30
0.0
 10
122.253994
 20
58.969965
 30
0.0
 10
122.341386
 20
58.808957
 30
0.0
 10
122.396617
 20
58.631033
 30
0.0
 10
122.415874
 20
58.440005
 30
0.0
  0
LWPOLYLINE
  5
10a
100
AcDbEntity
  8
Layer_1
 62
7
100
AcDbPolyline
 90
33
 70
1
 10
130.307371
 20
59.440012
 30
0.0
 10
130.247654
 20
58.847630
 30
0.0
 10
130.076381
 20
58.295883
 30
0.0
 10
129.805375
 20
57.796589
 30
0.0
 10
129.446453
 20
57.361572
 30
0.0
 10
129.011436
 20
57.002650
 30
0.0
 10
128.512143
 20
56.731646
 30
0.0
 10
127.960395
 20
56.560374
 30
0.0
 10
127.368012
 20
56.500656
 30
0.0
 10
126.775629
 20
56.560374
 30
0.0
 10
126.223881
 20
56.731646
 30
0.0
 10
125.724589
 20
57.002653
 30
0.0
 10
125.289571
 20
57.361572
 30
0.0
 10
124.930650
 20
57.796589
 30
0.0
 10
124.659643
 20
58.295883
 30
0.0
 10
124.488371
 20
58.847630
 30
0.0
 10
124.428654
 20
59.440012
 30
0.0
 10
124.488371
 20
60.032393
 30
0.0
 10
124.659643
 20
60.584141
 30
0.0
 10
124.930650
 20
61.083434
 30
0.0
 10
125.289572
 20
61.518451
 30
0.0
 10
125.724589
 20
61.877370
 30
0.0
 10
126.223881
 20
62.148377
 30
0.0
 10
126.775629
 20
62.319649
 30
0.0
 10
127.368012
 20
62.379368
 30
0.0
 10
127.960395
 20
62.319649
 30
0.0
 10
128.512143
 20
62.148377
 30
0.0
 10
129.011435
 20
61.877370
 30
0.0
 10
129.446453
 20
61.518451
 30
0.0
 10
129.805374
 20
61.083434
 30
0.0
 10
130.076381
 20
60.584141
 30
0.0
 10
130.247653
 20
60.032393
 30
0.0
 10
130.307371
 20
59.440012
 30
0.0
  0
LWPOLYLINE
  5
10b
100
AcDbEntity
  8
Layer_1
 62
7
100
AcDbPolyline
 90
33
 70
1
 10
128.817322
 20
42.140007
 30
0.0
 10
128.787880
 20
41.847907
 30
0.0
 10
128.703433
 20
41.575873
 30
0.0
 10
128.569808
 20
41.329690
 30
0.0
 10
128.392835
 20
41.115173
 30
0.0
 10
128.178340
 20
40.938192
 30
0.0
 10
127.932153
 20
40.804588
 30
0.0
 10
127.660101
 20
40.720119
 30
0.0
 10
127.368012
 20
40.690683
 30
0.0
 10
127.075923
 20
40.720119
 30
0.0
 10
126.803871
 20
40.804588
 30
0.0
 10
126.557684
 20
40.938192
 30
0.0
 10
126.343189
 20
41.115173
 30
0.0
 10
126.166216
 20
41.329690
 30
0.0
 10
126.032591
 20
41.575873
 30
0.0
 10
125.948144
 20
41.847907
 30
0.0
 10
125.918702
 20
42.140007
 30
0.0
 10
125.948149
 20
42.432079
 30
0.0
 10
126.032600
 20
42.704141
 30
0.0
 10
126.166226
 20
42.950323
 30
0.0
 10
126.343200
 20
43.164812
 30
0.0
 10
126.557693
 20
43.341794
 30
0.0
 10
126.803878
 20
43.475398
 30
0.0
 10
127.075927
 20
43.559867
 30
0.0
 10
127.368012
 20
43.589303
 30
0.0
 10
127.660097
 20
43.559867
 30
0.0
 10
127.932146
 20
43.475398
 30
0.0
 10
128.178331
 20
43.341794
 30
0.0
 10
128.392824
 20
43.164812
 30
0.0
 10
128.569798
 20
42.950323
 30
0.0
 10
128.703424
 20
42.704141
 30
0.0
 10
128.787875
 20
42.432079
 30
0.0
 10
128.817322
 20
42.140007
 30
0.0
  0
LWPOLYLINE
  5
10c
100
AcDbEntity
  8
Layer_1
 62
7
100
AcDbPolyline
 90
33
 70
1
 10
113.921055
 20
61.139960
 30
0.0
 10
114.207791
 20
61.139960
 30
0.0
 10
114.494527
 20
61.139960
 30
0.0
 10
114.781263
 20
61.139960
 30
0.0
 10
115.067999
 20
61.139960
 30
0.0
 10
115.354735
 20
61.139960
 30
0.0
 10
115.641470
 20
61.139960
 30
0.0
 10
115.928206
 20
61.139960
 30
0.0
 10
116.214942
 20
61.139960
 30
0.0
 10
116.214942
 20
60.714970
 30
0.0
 10
116.214942
 20
60.289980
 30
0.0
 10
116.214942
 20
59.864993
 30
0.0
 10
116.214942
 20
59.440003
 30
0.0
 10
116.214942
 20
59.015013
 30
0.0
 10
116.214942
 20
58.590026
 30
0.0
 10
116.214942
 20
58.165036
 30
0.0
 10
116.214942
 20
57.740046
 30
0.0
 10
115.928206
 20
57.740046
 30
0.0
 10
115.641470
 20
57.740046
 30
0.0
 10
115.354735
 20
57.740046
 30
0.0
 10
115.067999
 20
57.740046
 30
0.0
 10
114.781263
 20
57.740046
 30
0.0
 10
114.494527
 20
57.740046
 30
0.0
 10
114.207791
 20
57.740046
 30
0.0
 10
113.921055
 20
57.740046
 30
0.0
 10
113.921055
 20
58.165036
 30
0.0
 10
113.921055
 20
58.590026
 30
0.0
 10
113.921055
 20
59.015013
 30
0.0
 10
113.921055
 20
59.440003
 30
0.0
 10
113.921055
 20
59.864993
 30
0.0
 10
113.921055
 20
60.289980
 30
0.0
 10
113.921055
 20
60.714970
 30
0.0
 10
113.921055
 20
61.139960
 30
0.0
  0
LWPOLYLINE
  5
10d
100
AcDbEntity
  8
Layer_1
 62
7
100
AcDbPolyline
 90
33
 70
1
 10
138.521041
 20
61.136997
 30
0.0
 10
138.807787
 20
61.136997
 30
0.0
 10
139.094534
 20
61.136997
 30
0.0
 10
139.381281
 20
61.136997
 30
0.0
 10
139.668027
 20
61.136997
 30
0.0
 10
139.954773
 20
61.136997
 30
0.0
 10
140.241520
 20
61.136997
 30
0.0
 10
140.528267
 20
61.136997
 30
0.0
 10
140.815013
 20
61.136997
 30
0.0
 10
140.815013
 20
60.712752
 30
0.0
 10
140.815013
 20
60.288504
 30
0.0
 10
140.815013
 20
59.864257
 30
0.0
 10
140.815013
 20
59.440012
 30
0.0
 10
140.815013
 20
59.015764
 30
0.0
 10
140.815013
 20
58.591519
 30
0.0
 10
140.815013
 20
58.167274
 30
0.0
 10
140.815013
 20
57.743027
 30
0.0
 10
140.528267
 20
57.743027
 30
0.0
 10
140.241520
 20
57.743027
 30
0.0
 10
139.954773
 20
57.743027
 30
0.0
 10
139.668027
 20
57.743027
 30
0.0
 10
139.381281
 20
57.743027
 30
0.0
 10
139.094534
 20
57.743027
 30
0.0
 10
138.807787
 20
57.743027
 30
0.0
 10
138.521041
 20
57.743027
 30
0.0
 10
138.521041
 20
58.167274
 30
0.0
 10
138.521041
 20
58.591519
 30
0.0
 10
138.521041
 20
59.015764
 30
0.0
 10
138.521041
 20
59.440012
 30
0.0
 10
138.521041
 20
59.864257
 30
0.0
 10
138.521041
 20
60.288504
 30
0.0
 10
138.521041
 20
60.712752
 30
0.0
 10
138.521041
 20
61.136997
 30
0.0
  0
LWPOLYLINE
  5
10e
100
AcDbEntity
  8
Layer_1
 62
7
100
AcDbPolyline
 90
33
 70
1
 10
122.415874
 20
46.640012
 30
0.0
 10
122.396618
 20
46.448976
 30
0.0
 10
122.341388
 20
46.271063
 30
0.0
 10
122.253995
 20
46.110055
 30
0.0
 10
122.138252
 20
45.969762
 30
0.0
 10
121.997970
 20
45.854023
 30
0.0
 10
121.836961
 20
45.766619
 30
0.0
 10
121.659035
 20
45.711388
 30
0.0
 10
121.468006
 20
45.692197
 30
0.0
 10
121.276977
 20
45.711388
 30
0.0
 10
121.099052
 20
45.766619
 30
0.0
 10
120.938043
 20
45.854023
 30
0.0
 10
120.797761
 20
45.969762
 30
0.0
 10
120.682017
 20
46.110055
 30
0.0
 10
120.594625
 20
46.271063
 30
0.0
 10
120.539394
 20
46.448976
 30
0.0
 10
120.520138
 20
46.640012
 30
0.0
 10
120.539397
 20
46.831048
 30
0.0
 10
120.594628
 20
47.008961
 30
0.0
 10
120.682021
 20
47.169969
 30
0.0
 10
120.797764
 20
47.310262
 30
0.0
 10
120.938045
 20
47.426001
 30
0.0
 10
121.099054
 20
47.513405
 30
0.0
 10
121.276979
 20
47.568636
 30
0.0
 10
121.468008
 20
47.587827
 30
0.0
 10
121.659037
 20
47.568636
 30
0.0
 10
121.836961
 20
47.513405
 30
0.0
 10
121.997970
 20
47.426001
 30
0.0
 10
122.138252
 20
47.310262
 30
0.0
 10
122.253994
 20
47.169969
 30
0.0
 10
122.341387
 20
47.008961
 30
0.0
 10
122.396618
 20
46.831048
 30
0.0
 10
122.415874
 20
46.640012
 30
0.0
  0
LWPOLYLINE
  5
10f
100
AcDbEntity
  8
Layer_1
 62
7
100
AcDbPolyline
 90
33
 70
1
 10
134.215886
 20
46.640012
 30
0.0
 10
134.196630
 20
46.448976
 30
0.0
 10
134.141400
 20
46.271063
 30
0.0
 10
134.054007
 20
46.110055
 30
0.0
 10
133.938264
 20
45.969762
 30
0.0
 10
133.797982
 20
45.854023
 30
0.0
 10
133.636973
 20
45.766619
 30
0.0
 10
133.459048
 20
45.711388
 30
0.0
 10
133.268019
 20
45.692197
 30
0.0
 10
133.076989
 20
45.711388
 30
0.0
 10
132.899064
 20
45.766619
 30
0.0
 10
132.738055
 20
45.854023
 30
0.0
 10
132.597773
 20
45.969762
 30
0.0
 10
132.482030
 20
46.110055
 30
0.0
 10
132.394637
 20
46.271063
 30
0.0
 10
132.339407
 20
46.448976
 30
0.0
 10
132.320151
 20
46.640012
 30
0.0
 10
132.339410
 20
46.831048
 30
0.0
 10
132.394641
 20
47.008961
 30
0.0
 10
132.482033
 20
47.169969
 30
0.0
 10
132.597776
 20
47.310262
 30
0.0
 10
132.738058
 20
47.426001
 30
0.0
 10
132.899066
 20
47.513405
 30
0.0
 10
133.076991
 20
47.568636
 30
0.0
 10
133.268020
 20
47.587827
 30
0.0
 10
133.459049
 20
47.568636
 30
0.0
 10
133.636973
 20
47.513405
 30
0.0
 10
133.797982
 20
47.426001
 30
0.0
 10
133.938264
 20
47.310262
 30
0.0
 10
134.054007
 20
47.169969
 30
0.0
 10
134.141399
 20
47.008961
 30
0.0
 10
134.196630
 20
46.831048
 30
0.0
 10
134.215886
 20
46.640012
 30
0.0
  0
LWPOLYLINE
  5
110
100
AcDbEntity
  8
Layer_1
 62
7
100
AcDbPolyline
 90
33
 70
1
 10
134.215886
 20
58.440005
 30
0.0
 10
134.196630
 20
58.248978
 30
0.0
 10
134.141400
 20
58.071053
 30
0.0
 10
134.054007
 20
57.910043
 30
0.0
 10
133.938264
 20
57.769761
 30
0.0
 10
133.797982
 20
57.654016
 30
0.0
 10
133.636973
 20
57.566624
 30
0.0
 10
133.459048
 20
57.511393
 30
0.0
 10
133.268019
 20
57.492145
 30
0.0
 10
133.076990
 20
57.511393
 30
0.0
 10
132.899066
 20
57.566624
 30
0.0
 10
132.738057
 20
57.654016
 30
0.0
 10
132.597774
 20
57.769761
 30
0.0
 10
132.482031
 20
57.910043
 30
0.0
 10
132.394639
 20
58.071053
 30
0.0
 10
132.339408
 20
58.248978
 30
0.0
 10
132.320152
 20
58.440005
 30
0.0
 10
132.339411
 20
58.631033
 30
0.0
 10
132.394642
 20
58.808957
 30
0.0
 10
132.482035
 20
58.969965
 30
0.0
 10
132.597778
 20
59.110246
 30
0.0
 10
132.738060
 20
59.225991
 30
0.0
 10
132.899069
 20
59.313384
 30
0.0
 10
133.076993
 20
59.368615
 30
0.0
 10
133.268022
 20
59.387863
 30
0.0
 10
133.459050
 20
59.368615
 30
0.0
 10
133.636975
 20
59.313384
 30
0.0
 10
133.797983
 20
59.225991
 30
0.0
 10
133.938265
 20
59.110246
 30
0.0
 10
134.054009
 20
58.969965
 30
0.0
 10
134.141401
 20
58.808957
 30
0.0
 10
134.196633
 20
58.631033
 30
0.0
 10
134.215886
 20
58.440005
 30
0.0
  0
LWPOLYLINE
  5
111
100
AcDbEntity
  8
Layer_1
 62
7
100
AcDbPolyline
 90
33
 70
1
 10
67.415868
 20
9.160001
 30
0.0
 10
67.396612
 20
9.351029
 30
0.0
 10
67.341382
 20
9.528953
 30
0.0
 10
67.253989
 20
9.689963
 30
0.0
 10
67.138246
 20
9.830245
 30
0.0
 10
66.997964
 20
9.945990
 30
0.0
 10
66.836955
 20
10.033383
 30
0.0
 10
66.659030
 20
10.088614
 30
0.0
 10
66.468001
 20
10.107861
 30
0.0
 10
66.276972
 20
10.088614
 30
0.0
 10
66.099048
 20
10.033383
 30
0.0
 10
65.938038
 20
9.945990
 30
0.0
 10
65.797756
 20
9.830245
 30
0.0
 10
65.682013
 20
9.689963
 30
0.0
 10
65.594620
 20
9.528953
 30
0.0
 10
65.539390
 20
9.351029
 30
0.0
 10
65.520134
 20
9.160001
 30
0.0
 10
65.539390
 20
8.968973
 30
0.0
 10
65.594621
 20
8.791049
 30
0.0
 10
65.682014
 20
8.630041
 30
0.0
 10
65.797757
 20
8.489757
 30
0.0
 10
65.938039
 20
8.374015
 30
0.0
 10
66.099048
 20
8.286622
 30
0.0
 10
66.276972
 20
8.231391
 30
0.0
 10
66.468001
 20
8.212143
 30
0.0
 10
66.659029
 20
8.231391
 30
0.0
 10
66.836954
 20
8.286622
 30
0.0
 10
66.997963
 20
8.374015
 30
0.0
 10
67.138244
 20
8.489760
 30
0.0
 10
67.253988
 20
8.630041
 30
0.0
 10
67.341381
 20
8.791049
 30
0.0
 10
67.396612
 20
8.968973
 30
0.0
 10
67.415868
 20
9.160001
 30
0.0
  0
LWPOLYLINE
  5
112
100
AcDbEntity
  8
Layer_1
 62
7
100
AcDbPolyline
 90
33
 70
1
 10
75.307365
 20
8.159994
 30
0.0
 10
75.247648
 20
8.752376
 30
0.0
 10
75.076376
 20
9.304123
 30
0.0
 10
74.805369
 20
9.803417
 30
0.0
 10
74.446447
 20
10.238434
 30
0.0
 10
74.011430
 20
10.597356
 30
0.0
 10
73.512138
 20
10.868360
 30
0.0
 10
72.960390
 20
11.039632
 30
0.0
 10
72.368006
 20
11.099350
 30
0.0
 10
71.775623
 20
11.039632
 30
0.0
 10
71.223875
 20
10.868360
 30
0.0
 10
70.724583
 20
10.597353
 30
0.0
 10
70.289566
 20
10.238434
 30
0.0
 10
69.930644
 20
9.803417
 30
0.0
 10
69.659637
 20
9.304123
 30
0.0
 10
69.488365
 20
8.752376
 30
0.0
 10
69.428648
 20
8.159994
 30
0.0
 10
69.488365
 20
7.567613
 30
0.0
 10
69.659637
 20
7.015866
 30
0.0
 10
69.930644
 20
6.516572
 30
0.0
 10
70.289566
 20
6.081555
 30
0.0
 10
70.724583
 20
5.722636
 30
0.0
 10
71.223875
 20
5.451629
 30
0.0
 10
71.775623
 20
5.280357
 30
0.0
 10
72.368006
 20
5.220639
 30
0.0
 10
72.960390
 20
5.280357
 30
0.0
 10
73.512137
 20
5.451629
 30
0.0
 10
74.011430
 20
5.722636
 30
0.0
 10
74.446447
 20
6.081555
 30
0.0
 10
74.805369
 20
6.516572
 30
0.0
 10
75.076375
 20
7.015866
 30
0.0
 10
75.247648
 20
7.567613
 30
0.0
 10
75.307365
 20
8.159994
 30
0.0
  0
LWPOLYLINE
  5
113
100
AcDbEntity
  8
Layer_1
 62
7
100
AcDbPolyline
 90
33
 70
1
 10
73.817317
 20
25.459999
 30
0.0
 10
73.787875
 20
25.752099
 30
0.0
 10
73.703427
 20
26.024133
 30
0.0
 10
73.569802
 20
26.270316
 30
0.0
 10
73.392829
 20
26.484833
 30
0.0
 10
73.178334
 20
26.661814
 30
0.0
 10
72.932147
 20
26.795418
 30
0.0
 10
72.660095
 20
26.879888
 30
0.0
 10
72.368006
 20
26.909323
 30
0.0
 10
72.075918
 20
26.879888
 30
0.0
 10
71.803866
 20
26.795418
 30
0.0
 10
71.557678
 20
26.661814
 30
0.0
 10
71.343184
 20
26.484833
 30
0.0
 10
71.166210
 20
26.270316
 30
0.0
 10
71.032586
 20
26.024133
 30
0.0
 10
70.948138
 20
25.752099
 30
0.0
 10
70.918696
 20
25.459999
 30
0.0
 10
70.948144
 20
25.167928
 30
0.0
 10
71.032594
 20
24.895865
 30
0.0
 10
71.166221
 20
24.649683
 30
0.0
 10
71.343194
 20
24.435194
 30
0.0
 10
71.557688
 20
24.258212
 30
0.0
 10
71.803873
 20
24.124608
 30
0.0
 10
72.075921
 20
24.040139
 30
0.0
 10
72.368006
 20
24.010704
 30
0.0
 10
72.660091
 20
24.040139
 30
0.0
 10
72.932140
 20
24.124608
 30
0.0
 10
73.178325
 20
24.258212
 30
0.0
 10
73.392818
 20
24.435194
 30
0.0
 10
73.569792
 20
24.649683
 30
0.0
 10
73.703418
 20
24.895865
 30
0.0
 10
73.787869
 20
25.167928
 30
0.0
 10
73.817317
 20
25.459999
 30
0.0
  0
LWPOLYLINE
  5
114
100
AcDbEntity
  8
Layer_1
 62
7
100
AcDbPolyline
 90
33
 70
1
 10
58.921050
 20
6.460046
 30
0.0
 10
59.207786
 20
6.460046
 30
0.0
 10
59.494521
 20
6.460046
 30
0.0
 10
59.781257
 20
6.460046
 30
0.0
 10
60.067993
 20
6.460046
 30
0.0
 10
60.354729
 20
6.460046
 30
0.0
 10
60.641465
 20
6.460046
 30
0.0
 10
60.928201
 20
6.460046
 30
0.0
 10
61.214936
 20
6.460046
 30
0.0
 10
61.214936
 20
6.885036
 30
0.0
 10
61.214936
 20
7.310026
 30
0.0
 10
61.214936
 20
7.735013
 30
0.0
 10
61.214936
 20
8.160003
 30
0.0
 10
61.214936
 20
8.584993
 30
0.0
 10
61.214936
 20
9.009980
 30
0.0
 10
61.214936
 20
9.434970
 30
0.0
 10
61.214936
 20
9.859960
 30
0.0
 10
60.928201
 20
9.859960
 30
0.0
 10
60.641465
 20
9.859960
 30
0.0
 10
60.354729
 20
9.859960
 30
0.0
 10
60.067993
 20
9.859960
 30
0.0
 10
59.781257
 20
9.859960
 30
0.0
 10
59.494521
 20
9.859960
 30
0.0
 10
59.207786
 20
9.859960
 30
0.0
 10
58.921050
 20
9.859960
 30
0.0
 10
58.921050
 20
9.434970
 30
0.0
 10
58.921050
 20
9.009980
 30
0.0
 10
58.921050
 20
8.584993
 30
0.0
 10
58.921050
 20
8.160003
 30
0.0
 10
58.921050
 20
7.735013
 30
0.0
 10
58.921050
 20
7.310026
 30
0.0
 10
58.921050
 20
6.885036
 30
0.0
 10
58.921050
 20
6.460046
 30
0.0
  0
LWPOLYLINE
  5
115
100
AcDbEntity
  8
Layer_1
 62
7
100
AcDbPolyline
 90
33
 70
1
 10
83.521035
 20
6.463009
 30
0.0
 10
83.807782
 20
6.463009
 30
0.0
 10
84.094528
 20
6.463009
 30
0.0
 10
84.381275
 20
6.463009
 30
0.0
 10
84.668021
 20
6.463009
 30
0.0
 10
84.954768
 20
6.463009
 30
0.0
 10
85.241514
 20
6.463009
 30
0.0
 10
85.528261
 20
6.463009
 30
0.0
 10
85.815007
 20
6.463009
 30
0.0
 10
85.815007
 20
6.887254
 30
0.0
 10
85.815007
 20
7.311502
 30
0.0
 10
85.815007
 20
7.735750
 30
0.0
 10
85.815007
 20
8.159994
 30
0.0
 10
85.815007
 20
8.584239
 30
0.0
 10
85.815007
 20
9.008487
 30
0.0
 10
85.815007
 20
9.432732
 30
0.0
 10
85.815007
 20
9.856980
 30
0.0
 10
85.528261
 20
9.856980
 30
0.0
 10
85.241514
 20
9.856980
 30
0.0
 10
84.954768
 20
9.856980
 30
0.0
 10
84.668021
 20
9.856980
 30
0.0
 10
84.381275
 20
9.856980
 30
0.0
 10
84.094528
 20
9.856980
 30
0.0
 10
83.807782
 20
9.856980
 30
0.0
 10
83.521035
 20
9.856980
 30
0.0
 10
83.521035
 20
9.432732
 30
0.0
 10
83.521035
 20
9.008487
 30
0.0
 10
83.521035
 20
8.584239
 30
0.0
 10
83.521035
 20
8.159994
 30
0.0
 10
83.521035
 20
7.735750
 30
0.0
 10
83.521035
 20
7.311502
 30
0.0
 10
83.521035
 20
6.887254
 30
0.0
 10
83.521035
 20
6.463009
 30
0.0
  0
LWPOLYLINE
  5
116
100
AcDbEntity
  8
Layer_1
 62
7
100
AcDbPolyline
 90
33
 70
1
 10
67.415868
 20
20.959994
 30
0.0
 10
67.396612
 20
21.151030
 30
0.0
 10
67.341382
 20
21.328943
 30
0.0
 10
67.253989
 20
21.489951
 30
0.0
 10
67.138246
 20
21.630244
 30
0.0
 10
66.997964
 20
21.745983
 30
0.0
 10
66.836955
 20
21.833387
 30
0.0
 10
66.659030
 20
21.888618
 30
0.0
 10
66.468001
 20
21.907809
 30
0.0
 10
66.276971
 20
21.888618
 30
0.0
 10
66.099046
 20
21.833387
 30
0.0
 10
65.938037
 20
21.745983
 30
0.0
 10
65.797755
 20
21.630244
 30
0.0
 10
65.682012
 20
21.489951
 30
0.0
 10
65.594619
 20
21.328943
 30
0.0
 10
65.539389
 20
21.151030
 30
0.0
 10
65.520132
 20
20.959994
 30
0.0
 10
65.539391
 20
20.768958
 30
0.0
 10
65.594622
 20
20.591045
 30
0.0
 10
65.682015
 20
20.430037
 30
0.0
 10
65.797758
 20
20.289745
 30
0.0
 10
65.938039
 20
20.174005
 30
0.0
 10
66.099049
 20
20.086601
 30
0.0
 10
66.276973
 20
20.031370
 30
0.0
 10
66.468002
 20
20.012179
 30
0.0
 10
66.659031
 20
20.031370
 30
0.0
 10
66.836955
 20
20.086601
 30
0.0
 10
66.997964
 20
20.174005
 30
0.0
 10
67.138246
 20
20.289745
 30
0.0
 10
67.253989
 20
20.430037
 30
0.0
 10
67.341381
 20
20.591045
 30
0.0
 10
67.396612
 20
20.768958
 30
0.0
 10
67.415868
 20
20.959994
 30
0.0
  0
LWPOLYLINE
  5
117
100
AcDbEntity
  8
Layer_1
 62
7
100
AcDbPolyline
 90
33
 70
1
 10
79.215881
 20
20.959994
 30
0.0
 10
79.196625
 20
21.151030
 30
0.0
 10
79.141394
 20
21.328943
 30
0.0
 10
79.054002
 20
21.489951
 30
0.0
 10
78.938259
 20
21.630244
 30
0.0
 10
78.797977
 20
21.745983
 30
0.0
 10
78.636967
 20
21.833387
 30
0.0
 10
78.459042
 20
21.888618
 30
0.0
 10
78.268013
 20
21.907809
 30
0.0
 10
78.076984
 20
21.888618
 30
0.0
 10
77.899059
 20
21.833387
 30
0.0
 10
77.738049
 20
21.745983
 30
0.0
 10
77.597767
 20
21.630244
 30
0.0
 10
77.482024
 20
21.489951
 30
0.0
 10
77.394631
 20
21.328943
 30
0.0
 10
77.339401
 20
21.151030
 30
0.0
 10
77.320145
 20
20.959994
 30
0.0
 10
77.339404
 20
20.768958
 30
0.0
 10
77.394635
 20
20.591045
 30
0.0
 10
77.482028
 20
20.430037
 30
0.0
 10
77.597770
 20
20.289745
 30
0.0
 10
77.738052
 20
20.174005
 30
0.0
 10
77.899061
 20
20.086601
 30
0.0
 10
78.076985
 20
20.031370
 30
0.0
 10
78.268014
 20
20.012179
 30
0.0
 10
78.459043
 20
20.031370
 30
0.0
 10
78.636968
 20
20.086601
 30
0.0
 10
78.797977
 20
20.174005
 30
0.0
 10
78.938258
 20
20.289745
 30
0.0
 10
79.054001
 20
20.430037
 30
0.0
 10
79.141394
 20
20.591045
 30
0.0
 10
79.196625
 20
20.768958
 30
0.0
 10
79.215881
 20
20.959994
 30
0.0
  0
LWPOLYLINE
  5
118
100
AcDbEntity
  8
Layer_1
 62
7
100
AcDbPolyline
 90
33
 70
1
 10
79.215881
 20
9.160001
 30
0.0
 10
79.196625
 20
9.351029
 30
0.0
 10
79.141394
 20
9.528953
 30
0.0
 10
79.054001
 20
9.689963
 30
0.0
 10
78.938258
 20
9.830245
 30
0.0
 10
78.797976
 20
9.945990
 30
0.0
 10
78.636967
 20
10.033383
 30
0.0
 10
78.459042
 20
10.088614
 30
0.0
 10
78.268013
 20
10.107861
 30
0.0
 10
78.076985
 20
10.088614
 30
0.0
 10
77.899060
 20
10.033383
 30
0.0
 10
77.738051
 20
9.945990
 30
0.0
 10
77.597769
 20
9.830245
 30
0.0
 10
77.482026
 20
9.689963
 30
0.0
 10
77.394633
 20
9.528953
 30
0.0
 10
77.339402
 20
9.351029
 30
0.0
 10
77.320146
 20
9.160001
 30
0.0
 10
77.339405
 20
8.968973
 30
0.0
 10
77.394636
 20
8.791049
 30
0.0
 10
77.482029
 20
8.630041
 30
0.0
 10
77.597772
 20
8.489760
 30
0.0
 10
77.738054
 20
8.374015
 30
0.0
 10
77.899063
 20
8.286622
 30
0.0
 10
78.076988
 20
8.231391
 30
0.0
 10
78.268016
 20
8.212143
 30
0.0
 10
78.459044
 20
8.231391
 30
0.0
 10
78.636969
 20
8.286622
 30
0.0
 10
78.797978
 20
8.374015
 30
0.0
 10
78.938259
 20
8.489760
 30
0.0
 10
79.054003
 20
8.630041
 30
0.0
 10
79.141396
 20
8.791049
 30
0.0
 10
79.196627
 20
8.968973
 30
0.0
 10
79.215881
 20
9.160001
 30
0.0
  0
LWPOLYLINE
  5
119
100
AcDbEntity
  8
Layer_1
 62
7
100
AcDbPolyline
 90
33
 70
1
 10
57.671434
 20
56.831680
 30
0.0
 10
57.469286
 20
54.826407
 30
0.0
 10
56.889515
 20
52.958717
 30
0.0
 10
55.972134
 20
51.268544
 30
0.0
 10
54.757153
 20
49.795993
 30
0.0
 10
53.284586
 20
48.580998
 30
0.0
 10
51.594439
 20
47.663635
 30
0.0
 10
49.726726
 20
47.083866
 30
0.0
 10
47.721461
 20
46.881710
 30
0.0
 10
45.716196
 20
47.083866
 30
0.0
 10
43.848483
 20
47.663635
 30
0.0
 10
42.158336
 20
48.580998
 30
0.0
 10
40.685768
 20
49.795993
 30
0.0
 10
39.470787
 20
51.268544
 30
0.0
 10
38.553407
 20
52.958717
 30
0.0
 10
37.973635
 20
54.826407
 30
0.0
 10
37.771488
 20
56.831680
 30
0.0
 10
37.973635
 20
58.836946
 30
0.0
 10
38.553407
 20
60.704658
 30
0.0
 10
39.470787
 20
62.394803
 30
0.0
 10
40.685768
 20
63.867373
 30
0.0
 10
42.158336
 20
65.082351
 30
0.0
 10
43.848483
 20
65.999731
 30
0.0
 10
45.716196
 20
66.579503
 30
0.0
 10
47.721461
 20
66.781651
 30
0.0
 10
49.726726
 20
66.579503
 30
0.0
 10
51.594439
 20
65.999731
 30
0.0
 10
53.284586
 20
65.082351
 30
0.0
 10
54.757153
 20
63.867373
 30
0.0
 10
55.972134
 20
62.394803
 30
0.0
 10
56.889515
 20
60.704658
 30
0.0
 10
57.469286
 20
58.836946
 30
0.0
 10
57.671434
 20
56.831680
 30
0.0
  0
LWPOLYLINE
  5
11a
100
AcDbEntity
  8
Layer_1
 62
7
100
AcDbPolyline
 90
33
 70
1
 10
81.837939
 20
42.569609
 30
0.0
 10
81.635792
 20
40.564335
 30
0.0
 10
81.056020
 20
38.696645
 30
0.0
 10
80.138640
 20
37.006472
 30
0.0
 10
78.923659
 20
35.533922
 30
0.0
 10
77.451091
 20
34.318927
 30
0.0
 10
75.760944
 20
33.401563
 30
0.0
 10
73.893231
 20
32.821794
 30
0.0
 10
71.887966
 20
32.619638
 30
0.0
 10
69.882701
 20
32.821794
 30
0.0
 10
68.014988
 20
33.401563
 30
0.0
 10
66.324841
 20
34.318927
 30
0.0
 10
64.852273
 20
35.533922
 30
0.0
 10
63.637293
 20
37.006472
 30
0.0
 10
62.719912
 20
38.696645
 30
0.0
 10
62.140140
 20
40.564335
 30
0.0
 10
61.937993
 20
42.569609
 30
0.0
 10
62.140140
 20
44.574882
 30
0.0
 10
62.719912
 20
46.442572
 30
0.0
 10
63.637293
 20
48.132745
 30
0.0
 10
64.852273
 20
49.605296
 30
0.0
 10
66.324841
 20
50.820291
 30
0.0
 10
68.014988
 20
51.737654
 30
0.0
 10
69.882701
 20
52.317423
 30
0.0
 10
71.887966
 20
52.519579
 30
0.0
 10
73.893231
 20
52.317423
 30
0.0
 10
75.760944
 20
51.737654
 30
0.0
 10
77.451091
 20
50.820291
 30
0.0
 10
78.923659
 20
49.605296
 30
0.0
 10
80.138640
 20
48.132745
 30
0.0
 10
81.056020
 20
46.442572
 30
0.0
 10
81.635792
 20
44.574882
 30
0.0
 10
81.837939
 20
42.569609
 30
0.0
  0
LWPOLYLINE
  5
11b
100
AcDbEntity
  8
Layer_1
 62
7
100
AcDbPolyline
 90
33
 70
1
 10
59.548276
 20
29.484037
 30
0.0
 10
59.183284
 20
27.478763
 30
0.0
 10
58.136471
 20
25.611073
 30
0.0
 10
56.480078
 20
23.920900
 30
0.0
 10
54.286353
 20
22.448350
 30
0.0
 10
51.627532
 20
21.233355
 30
0.0
 10
48.575863
 20
20.315991
 30
0.0
 10
45.203587
 20
19.736222
 30
0.0
 10
41.582947
 20
19.534066
 30
0.0
 10
37.962307
 20
19.736222
 30
0.0
 10
34.590030
 20
20.315991
 30
0.0
 10
31.538362
 20
21.233355
 30
0.0
 10
28.879542
 20
22.448350
 30
0.0
 10
26.685815
 20
23.920900
 30
0.0
 10
25.029424
 20
25.611073
 30
0.0
 10
23.982611
 20
27.478763
 30
0.0
 10
23.617618
 20
29.484037
 30
0.0
 10
23.982610
 20
31.489310
 30
0.0
 10
25.029422
 20
33.357000
 30
0.0
 10
26.685814
 20
35.047173
 30
0.0
 10
28.879541
 20
36.519724
 30
0.0
 10
31.538361
 20
37.734719
 30
0.0
 10
34.590030
 20
38.652082
 30
0.0
 10
37.962307
 20
39.231851
 30
0.0
 10
41.582947
 20
39.434007
 30
0.0
 10
45.203587
 20
39.231851
 30
0.0
 10
48.575863
 20
38.652082
 30
0.0
 10
51.627532
 20
37.734719
 30
0.0
 10
54.286353
 20
36.519724
 30
0.0
 10
56.480081
 20
35.047173
 30
0.0
 10
58.136471
 20
33.357000
 30
0.0
 10
59.183284
 20
31.489310
 30
0.0
 10
59.548276
 20
29.484037
 30
0.0
  0
LWPOLYLINE
  5
11c
100
AcDbEntity
  8
Layer_1
 62
7
100
AcDbPolyline
 90
33
 70
1
 10
120.157895
 20
28.987100
 30
0.0
 10
119.786496
 20
26.981826
 30
0.0
 10
118.721310
 20
25.114136
 30
0.0
 10
117.035848
 20
23.423964
 30
0.0
 10
114.803620
 20
21.951413
 30
0.0
 10
112.098136
 20
20.736418
 30
0.0
 10
108.992907
 20
19.819054
 30
0.0
 10
105.561446
 20
19.239285
 30
0.0
 10
101.877261
 20
19.037130
 30
0.0
 10
98.193075
 20
19.239285
 30
0.0
 10
94.761614
 20
19.819054
 30
0.0
 10
91.656385
 20
20.736418
 30
0.0
 10
88.950902
 20
21.951413
 30
0.0
 10
86.718673
 20
23.423964
 30
0.0
 10
85.033211
 20
25.114136
 30
0.0
 10
83.968026
 20
26.981826
 30
0.0
 10
83.596627
 20
28.987100
 30
0.0
 10
83.968023
 20
30.992373
 30
0.0
 10
85.033208
 20
32.860064
 30
0.0
 10
86.718671
 20
34.550236
 30
0.0
 10
88.950902
 20
36.022787
 30
0.0
 10
91.656385
 20
37.237782
 30
0.0
 10
94.761614
 20
38.155145
 30
0.0
 10
98.193075
 20
38.734914
 30
0.0
 10
101.877261
 20
38.937070
 30
0.0
 10
105.561446
 20
38.734914
 30
0.0
 10
108.992907
 20
38.155145
 30
0.0
 10
112.098136
 20
37.237782
 30
0.0
 10
114.803620
 20
36.022787
 30
0.0
 10
117.035851
 20
34.550236
 30
0.0
 10
118.721313
 20
32.860064
 30
0.0
 10
119.786499
 20
30.992373
 30
0.0
 10
120.157895
 20
28.987100
 30
0.0
  0
LWPOLYLINE
  5
11d
100
AcDbEntity
  8
Layer_1
 62
7
100
AcDbPolyline
 90
33
 70
1
 10
107.512208
 20
56.317782
 30
0.0
 10
107.310061
 20
54.312508
 30
0.0
 10
106.730289
 20
52.444818
 30
0.0
 10
105.812909
 20
50.754646
 30
0.0
 10
104.597928
 20
49.282095
 30
0.0
 10
103.125360
 20
48.067100
 30
0.0
 10
101.435213
 20
47.149737
 30
0.0
 10
99.567500
 20
46.569968
 30
0.0
 10
97.562235
 20
46.367812
 30
0.0
 10
95.556970
 20
46.569968
 30
0.0
 10
93.689257
 20
47.149737
 30
0.0
 10
91.999110
 20
48.067100
 30
0.0
 10
90.526543
 20
49.282095
 30
0.0
 10
89.311562
 20
50.754646
 30
0.0
 10
88.394182
 20
52.444818
 30
0.0
 10
87.814410
 20
54.312508
 30
0.0
 10
87.612262
 20
56.317782
 30
0.0
 10
87.814410
 20
58.323050
 30
0.0
 10
88.394179
 20
60.190763
 30
0.0
 10
89.311559
 20
61.880910
 30
0.0
 10
90.526540
 20
63.353480
 30
0.0
 10
91.999110
 20
64.568461
 30
0.0
 10
93.689255
 20
65.485841
 30
0.0
 10
95.556967
 20
66.065613
 30
0.0
 10
97.562235
 20
66.267761
 30
0.0
 10
99.567503
 20
66.065613
 30
0.0
 10
101.435216
 20
65.485841
 30
0.0
 10
103.125360
 20
64.568461
 30
0.0
 10
104.597931
 20
63.353480
 30
0.0
 10
105.812912
 20
61.880910
 30
0.0
 10
106.730292
 20
60.190763
 30
0.0
 10
107.310061
 20
58.323050
 30
0.0
 10
107.512208
 20
56.317782
 30
0.0
  0
ENDSEC
  0
SECTION
  2
OBJECTS
  0
DICTIONARY
  5
C
330
0
100
AcDbDictionary
  3
ACAD_GROUP
350
D
  3
ACAD_MLINESTYLE
350
17
  0
DICTIONARY
  5
D
330
C
100
AcDbDictionary
  0
DICTIONARY
  5
1A
330
C
100
AcDbDictionary
  0
DICTIONARY
  5
17
330
C
100
AcDbDictionary
  3
STANDARD
350
18
  0
DICTIONARY
  5
19
330
C
100
AcDbDictionary
  0
ENDSEC
  0
EOF
