  0
SECTION
  2
HEADER
  9
$ACADVER
  1
AC1014
  9
$HANDSEED
  5
FFFF
  9
$MEASUREMENT
 70
     1
  0
ENDSEC
  0
SECTION
  2
TABLES
  0
TABLE
  2
VPORT
  5
8
330
0
100
AcDbSymbolTable
 70
     4
  0
VPORT
  5
2E
330
8
100
AcDbSymbolTableRecord
100
AcDbViewportTableRecord
  2
*ACTIVE
 70
     0
 10
0.0
 20
0.0
 11
1.0
 21
1.0
 12
210.0
 22
148.5
 13
0.0
 23
0.0
 14
10.0
 24
10.0
 15
10.0
 25
10.0
 16
0.0
 26
0.0
 36
1.0
 17
0.0
 27
0.0
 37
0.0
 40
341.0
 41
1.24
 42
50.0
 43
0.0
 44
0.0
 50
0.0
 51
0.0
 71
     0
 72
   100
 73
     1
 74
     3
 75
     0
 76
     0
 77
     0
 78
     0
  0
ENDTAB
  0
TABLE
  2
LTYPE
  5
5
330
0
100
AcDbSymbolTable
 70
     1
  0
LTYPE
  5
14
330
5
100
AcDbSymbolTableRecord
100
AcDbLinetypeTableRecord
  2
BYBLOCK
 70
     0
  3

 72
    65
 73
     0
 40
0.0
  0
LTYPE
  5
15
330
5
100
AcDbSymbolTableRecord
100
AcDbLinetypeTableRecord
  2
BYLAYER
 70
     0
  3

 72
    65
 73
     0
 40
0.0
  0
LTYPE
  5
16
330
5
100
AcDbSymbolTableRecord
100
AcDbLinetypeTableRecord
  2
CONTINUOUS
 70
     0
  3
Solid line
 72
    65
 73
     0
 40
0.0
  0
ENDTAB
  0
TABLE
  2
LAYER
  5
2
100
AcDbSymbolTable
 70
2
  0
LAYER
  5
50
100
AcDbSymbolTableRecord
100
AcDbLayerTableRecord
  2
0
 70
0
  6
CONTINUOUS
  0
LAYER
  5
51
100
AcDbSymbolTableRecord
100
AcDbLayerTableRecord
  2
Layer_1
 70
0
  6
CONTINUOUS
  0
ENDTAB
  0
TABLE
  2
STYLE
  5
3
330
0
100
AcDbSymbolTable
 70
     1
  0
STYLE
  5
11
330
3
100
AcDbSymbolTableRecord
100
AcDbTextStyleTableRecord
  2
STANDARD
 70
     0
 40
0.0
 41
1.0
 50
0.0
 71
     0
 42
2.5
  3
txt
  4

  0
ENDTAB
  0
TABLE
  2
VIEW
  5
6
330
0
100
AcDbSymbolTable
 70
     0
  0
ENDTAB
  0
TABLE
  2
UCS
  5
7
330
0
100
AcDbSymbolTable
 70
     0
  0
ENDTAB
  0
TABLE
  2
APPID
  5
9
330
0
100
AcDbSymbolTable
 70
     2
  0
APPID
  5
12
330
9
100
AcDbSymbolTableRecord
100
AcDbRegAppTableRecord
  2
ACAD
 70
     0
  0
ENDTAB
  0
TABLE
  2
DIMSTYLE
  5
A
330
0
100
AcDbSymbolTable
 70
     1
  0
DIMSTYLE
105
27
330
A
100
AcDbSymbolTableRecord
100
AcDbDimStyleTableRecord
  2
ISO-25
 70
     0
  3

  4

  5

  6

  7

 40
1.0
 41
2.5
 42
0.625
 43
3.75
 44
1.25
 45
0.0
 46
0.0
 47
0.0
 48
0.0
140
2.5
141
2.5
142
0.0
143
0.03937007874016
144
1.0
145
0.0
146
1.0
147
0.625
 71
     0
 72
     0
 73
     0
 74
     0
 75
     0
 76
     0
 77
     1
 78
     8
170
     0
171
     3
172
     1
173
     0
174
     0
175
     0
176
     0
177
     0
178
     0
270
     2
271
     2
272
     2
273
     2
274
     3
340
11
275
     0
280
     0
281
     0
282
     0
283
     0
284
     8
285
     0
286
     0
287
     3
288
     0
  0
ENDTAB
  0
TABLE
  2
BLOCK_RECORD
  5
1
330
0
100
AcDbSymbolTable
 70
     1
  0
BLOCK_RECORD
  5
1F
330
1
100
AcDbSymbolTableRecord
100
AcDbBlockTableRecord
  2
*MODEL_SPACE
  0
BLOCK_RECORD
  5
1B
330
1
100
AcDbSymbolTableRecord
100
AcDbBlockTableRecord
  2
*PAPER_SPACE
  0
ENDTAB
  0
ENDSEC
  0
SECTION
  2
BLOCKS
  0
BLOCK
  5
20
330
1F
100
AcDbEntity
  8
0
100
AcDbBlockBegin
  2
*MODEL_SPACE
 70
     0
 10
0.0
 20
0.0
 30
0.0
  3
*MODEL_SPACE
  1

  0
ENDBLK
  5
21
330
1F
100
AcDbEntity
  8
0
100
AcDbBlockEnd
  0
BLOCK
  5
1C
330
1B
100
AcDbEntity
 67
     1
  8
0
100
AcDbBlockBegin
  2
*PAPER_SPACE
  1

  0
ENDBLK
  5
1D
330
1B
100
AcDbEntity
 67
     1
  8
0
100
AcDbBlockEnd
  0
ENDSEC
  0
SECTION
  2
ENTITIES
  0
LWPOLYLINE
  5
100
100
AcDbEntity
  8
Layer_1
 62
7
100
AcDbPolyline
 90
33
 70
1
 10
12.547868
 20
24.416176
 30
0.0
 10
12.528612
 20
24.225148
 30
0.0
 10
12.473381
 20
24.047224
 30
0.0
 10
12.385989
 20
23.886213
 30
0.0
 10
12.270246
 20
23.745932
 30
0.0
 10
12.129964
 20
23.630187
 30
0.0
 10
11.968955
 20
23.542794
 30
0.0
 10
11.791031
 20
23.487563
 30
0.0
 10
11.600002
 20
23.468315
 30
0.0
 10
11.408973
 20
23.487563
 30
0.0
 10
11.231049
 20
23.542794
 30
0.0
 10
11.070040
 20
23.630187
 30
0.0
 10
10.929758
 20
23.745932
 30
0.0
 10
10.814015
 20
23.886213
 30
0.0
 10
10.726622
 20
24.047224
 30
0.0
 10
10.671391
 20
24.225148
 30
0.0
 10
10.652135
 20
24.416176
 30
0.0
 10
10.671391
 20
24.607203
 30
0.0
 10
10.726623
 20
24.785128
 30
0.0
 10
10.814016
 20
24.946135
 30
0.0
 10
10.929759
 20
25.086420
 30
0.0
 10
11.070040
 20
25.202162
 30
0.0
 10
11.231049
 20
25.289555
 30
0.0
 10
11.408973
 20
25.344785
 30
0.0
 10
11.600002
 20
25.364033
 30
0.0
 10
11.791030
 20
25.344785
 30
0.0
 10
11.968954
 20
25.289555
 30
0.0
 10
12.129963
 20
25.202162
 30
0.0
 10
12.270244
 20
25.086417
 30
0.0
 10
12.385988
 20
24.946135
 30
0.0
 10
12.473380
 20
24.785128
 30
0.0
 10
12.528612
 20
24.607203
 30
0.0
 10
12.547868
 20
24.416176
 30
0.0
  0
LWPOLYLINE
  5
101
100
AcDbEntity
  8
Layer_1
 62
7
100
AcDbPolyline
 90
33
 70
1
 10
20.439356
 20
25.416182
 30
0.0
 10
20.379639
 20
24.823800
 30
0.0
 10
20.208367
 20
24.272053
 30
0.0
 10
19.937361
 20
23.772760
 30
0.0
 10
19.578439
 20
23.337742
 30
0.0
 10
19.143422
 20
22.978821
 30
0.0
 10
18.644131
 20
22.707817
 30
0.0
 10
18.092383
 20
22.536545
 30
0.0
 10
17.500001
 20
22.476826
 30
0.0
 10
16.907618
 20
22.536545
 30
0.0
 10
16.355871
 20
22.707817
 30
0.0
 10
15.856579
 20
22.978823
 30
0.0
 10
15.421562
 20
23.337742
 30
0.0
 10
15.062641
 20
23.772760
 30
0.0
 10
14.791634
 20
24.272053
 30
0.0
 10
14.620362
 20
24.823800
 30
0.0
 10
14.560645
 20
25.416182
 30
0.0
 10
14.620363
 20
26.008564
 30
0.0
 10
14.791635
 20
26.560311
 30
0.0
 10
15.062641
 20
27.059604
 30
0.0
 10
15.421563
 20
27.494622
 30
0.0
 10
15.856579
 20
27.853541
 30
0.0
 10
16.355871
 20
28.124547
 30
0.0
 10
16.907618
 20
28.295820
 30
0.0
 10
17.500001
 20
28.355538
 30
0.0
 10
18.092383
 20
28.295820
 30
0.0
 10
18.644130
 20
28.124547
 30
0.0
 10
19.143422
 20
27.853541
 30
0.0
 10
19.578439
 20
27.494622
 30
0.0
 10
19.937360
 20
27.059604
 30
0.0
 10
20.208367
 20
26.560311
 30
0.0
 10
20.379639
 20
26.008564
 30
0.0
 10
20.439356
 20
25.416182
 30
0.0
  0
LWPOLYLINE
  5
102
100
AcDbEntity
  8
Layer_1
 62
7
100
AcDbPolyline
 90
33
 70
1
 10
18.949309
 20
8.116177
 30
0.0
 10
18.919867
 20
7.824077
 30
0.0
 10
18.835420
 20
7.552043
 30
0.0
 10
18.701795
 20
7.305861
 30
0.0
 10
18.524822
 20
7.091344
 30
0.0
 10
18.310328
 20
6.914362
 30
0.0
 10
18.064141
 20
6.780758
 30
0.0
 10
17.792089
 20
6.696289
 30
0.0
 10
17.500001
 20
6.666853
 30
0.0
 10
17.207912
 20
6.696289
 30
0.0
 10
16.935861
 20
6.780758
 30
0.0
 10
16.689673
 20
6.914362
 30
0.0
 10
16.475179
 20
7.091344
 30
0.0
 10
16.298206
 20
7.305861
 30
0.0
 10
16.164581
 20
7.552043
 30
0.0
 10
16.080134
 20
7.824077
 30
0.0
 10
16.050692
 20
8.116177
 30
0.0
 10
16.080139
 20
8.408249
 30
0.0
 10
16.164590
 20
8.680311
 30
0.0
 10
16.298216
 20
8.926494
 30
0.0
 10
16.475190
 20
9.140982
 30
0.0
 10
16.689683
 20
9.317964
 30
0.0
 10
16.935868
 20
9.451568
 30
0.0
 10
17.207916
 20
9.536037
 30
0.0
 10
17.500001
 20
9.565473
 30
0.0
 10
17.792085
 20
9.536037
 30
0.0
 10
18.064134
 20
9.451568
 30
0.0
 10
18.310318
 20
9.317964
 30
0.0
 10
18.524812
 20
9.140982
 30
0.0
 10
18.701785
 20
8.926494
 30
0.0
 10
18.835411
 20
8.680311
 30
0.0
 10
18.919862
 20
8.408249
 30
0.0
 10
18.949309
 20
8.116177
 30
0.0
  0
LWPOLYLINE
  5
103
100
AcDbEntity
  8
Layer_1
 62
7
100
AcDbPolyline
 90
33
 70
1
 10
4.053059
 20
27.116131
 30
0.0
 10
4.339794
 20
27.116131
 30
0.0
 10
4.626530
 20
27.116131
 30
0.0
 10
4.913265
 20
27.116131
 30
0.0
 10
5.200001
 20
27.116131
 30
0.0
 10
5.486736
 20
27.116131
 30
0.0
 10
5.773472
 20
27.116131
 30
0.0
 10
6.060207
 20
27.116131
 30
0.0
 10
6.346943
 20
27.116131
 30
0.0
 10
6.346943
 20
26.691141
 30
0.0
 10
6.346943
 20
26.266151
 30
0.0
 10
6.346943
 20
25.841164
 30
0.0
 10
6.346943
 20
25.416174
 30
0.0
 10
6.346943
 20
24.991184
 30
0.0
 10
6.346943
 20
24.566196
 30
0.0
 10
6.346943
 20
24.141206
 30
0.0
 10
6.346943
 20
23.716217
 30
0.0
 10
6.060207
 20
23.716217
 30
0.0
 10
5.773472
 20
23.716217
 30
0.0
 10
5.486736
 20
23.716217
 30
0.0
 10
5.200001
 20
23.716217
 30
0.0
 10
4.913265
 20
23.716217
 30
0.0
 10
4.626530
 20
23.716217
 30
0.0
 10
4.339794
 20
23.716217
 30
0.0
 10
4.053059
 20
23.716217
 30
0.0
 10
4.053059
 20
24.141206
 30
0.0
 10
4.053059
 20
24.566196
 30
0.0
 10
4.053059
 20
24.991184
 30
0.0
 10
4.053059
 20
25.416174
 30
0.0
 10
4.053059
 20
25.841164
 30
0.0
 10
4.053059
 20
26.266151
 30
0.0
 10
4.053059
 20
26.691141
 30
0.0
 10
4.053059
 20
27.116131
 30
0.0
  0
LWPOLYLINE
  5
104
100
AcDbEntity
  8
Layer_1
 62
7
100
AcDbPolyline
 90
33
 70
1
 10
28.653017
 20
27.113167
 30
0.0
 10
28.939763
 20
27.113167
 30
0.0
 10
29.226510
 20
27.113167
 30
0.0
 10
29.513256
 20
27.113167
 30
0.0
 10
29.800002
 20
27.113167
 30
0.0
 10
30.086748
 20
27.113167
 30
0.0
 10
30.373494
 20
27.113167
 30
0.0
 10
30.660241
 20
27.113167
 30
0.0
 10
30.946987
 20
27.113167
 30
0.0
 10
30.946987
 20
26.688922
 30
0.0
 10
30.946987
 20
26.264675
 30
0.0
 10
30.946987
 20
25.840427
 30
0.0
 10
30.946987
 20
25.416182
 30
0.0
 10
30.946987
 20
24.991937
 30
0.0
 10
30.946987
 20
24.567689
 30
0.0
 10
30.946987
 20
24.143445
 30
0.0
 10
30.946987
 20
23.719197
 30
0.0
 10
30.660241
 20
23.719197
 30
0.0
 10
30.373494
 20
23.719197
 30
0.0
 10
30.086748
 20
23.719197
 30
0.0
 10
29.800002
 20
23.719197
 30
0.0
 10
29.513256
 20
23.719197
 30
0.0
 10
29.226510
 20
23.719197
 30
0.0
 10
28.939763
 20
23.719197
 30
0.0
 10
28.653017
 20
23.719197
 30
0.0
 10
28.653017
 20
24.143445
 30
0.0
 10
28.653017
 20
24.567689
 30
0.0
 10
28.653017
 20
24.991937
 30
0.0
 10
28.653017
 20
25.416182
 30
0.0
 10
28.653017
 20
25.840427
 30
0.0
 10
28.653017
 20
26.264675
 30
0.0
 10
28.653017
 20
26.688922
 30
0.0
 10
28.653017
 20
27.113167
 30
0.0
  0
LWPOLYLINE
  5
105
100
AcDbEntity
  8
Layer_1
 62
7
100
AcDbPolyline
 90
33
 70
1
 10
0.050186
 20
34.949812
 30
0.0
 10
4.412640
 20
34.949812
 30
0.0
 10
8.775094
 20
34.949812
 30
0.0
 10
13.137547
 20
34.949812
 30
0.0
 10
17.500001
 20
34.949812
 30
0.0
 10
21.862455
 20
34.949812
 30
0.0
 10
26.224908
 20
34.949812
 30
0.0
 10
30.587362
 20
34.949812
 30
0.0
 10
34.949816
 20
34.949812
 30
0.0
 10
34.949816
 20
30.587360
 30
0.0
 10
34.949816
 20
26.224904
 30
0.0
 10
34.949816
 20
21.862451
 30
0.0
 10
34.949816
 20
17.499998
 30
0.0
 10
34.949816
 20
13.137531
 30
0.0
 10
34.949816
 20
8.775081
 30
0.0
 10
34.949816
 20
4.412631
 30
0.0
 10
34.949816
 20
0.050181
 30
0.0
 10
30.587362
 20
0.050181
 30
0.0
 10
26.224908
 20
0.050181
 30
0.0
 10
21.862455
 20
0.050181
 30
0.0
 10
17.500001
 20
0.050181
 30
0.0
 10
13.137547
 20
0.050181
 30
0.0
 10
8.775094
 20
0.050181
 30
0.0
 10
4.412640
 20
0.050181
 30
0.0
 10
0.050186
 20
0.050181
 30
0.0
 10
0.050186
 20
4.412631
 30
0.0
 10
0.050186
 20
8.775081
 30
0.0
 10
0.050186
 20
13.137531
 30
0.0
 10
0.050186
 20
17.499998
 30
0.0
 10
0.050186
 20
21.862451
 30
0.0
 10
0.050186
 20
26.224904
 30
0.0
 10
0.050186
 20
30.587360
 30
0.0
 10
0.050186
 20
34.949812
 30
0.0
  0
LWPOLYLINE
  5
106
100
AcDbEntity
  8
Layer_1
 62
7
100
AcDbPolyline
 90
33
 70
1
 10
12.547868
 20
12.616182
 30
0.0
 10
12.528612
 20
12.425146
 30
0.0
 10
12.473382
 20
12.247233
 30
0.0
 10
12.385989
 20
12.086225
 30
0.0
 10
12.270246
 20
11.945933
 30
0.0
 10
12.129964
 20
11.830193
 30
0.0
 10
11.968955
 20
11.742789
 30
0.0
 10
11.791030
 20
11.687558
 30
0.0
 10
11.600001
 20
11.668367
 30
0.0
 10
11.408972
 20
11.687558
 30
0.0
 10
11.231047
 20
11.742789
 30
0.0
 10
11.070038
 20
11.830193
 30
0.0
 10
10.929756
 20
11.945933
 30
0.0
 10
10.814013
 20
12.086225
 30
0.0
 10
10.726621
 20
12.247233
 30
0.0
 10
10.671390
 20
12.425146
 30
0.0
 10
10.652134
 20
12.616182
 30
0.0
 10
10.671393
 20
12.807218
 30
0.0
 10
10.726624
 20
12.985131
 30
0.0
 10
10.814017
 20
13.146139
 30
0.0
 10
10.929759
 20
13.286432
 30
0.0
 10
11.070041
 20
13.402171
 30
0.0
 10
11.231050
 20
13.489575
 30
0.0
 10
11.408974
 20
13.544806
 30
0.0
 10
11.600003
 20
13.563997
 30
0.0
 10
11.791031
 20
13.544806
 30
0.0
 10
11.968956
 20
13.489575
 30
0.0
 10
12.129964
 20
13.402171
 30
0.0
 10
12.270246
 20
13.286432
 30
0.0
 10
12.385989
 20
13.146139
 30
0.0
 10
12.473381
 20
12.985131
 30
0.0
 10
12.528612
 20
12.807218
 30
0.0
 10
12.547868
 20
12.616182
 30
0.0
  0
LWPOLYLINE
  5
107
100
AcDbEntity
  8
Layer_1
 62
7
100
AcDbPolyline
 90
33
 70
1
 10
24.347867
 20
12.616182
 30
0.0
 10
24.328611
 20
12.425146
 30
0.0
 10
24.273381
 20
12.247233
 30
0.0
 10
24.185989
 20
12.086225
 30
0.0
 10
24.070246
 20
11.945933
 30
0.0
 10
23.929964
 20
11.830193
 30
0.0
 10
23.768955
 20
11.742789
 30
0.0
 10
23.591029
 20
11.687558
 30
0.0
 10
23.400001
 20
11.668367
 30
0.0
 10
23.208972
 20
11.687558
 30
0.0
 10
23.031047
 20
11.742789
 30
0.0
 10
22.870038
 20
11.830193
 30
0.0
 10
22.729756
 20
11.945933
 30
0.0
 10
22.614013
 20
12.086225
 30
0.0
 10
22.526620
 20
12.247233
 30
0.0
 10
22.471390
 20
12.425146
 30
0.0
 10
22.452134
 20
12.616182
 30
0.0
 10
22.471393
 20
12.807218
 30
0.0
 10
22.526624
 20
12.985131
 30
0.0
 10
22.614016
 20
13.146139
 30
0.0
 10
22.729759
 20
13.286432
 30
0.0
 10
22.870040
 20
13.402171
 30
0.0
 10
23.031049
 20
13.489575
 30
0.0
 10
23.208973
 20
13.544806
 30
0.0
 10
23.400002
 20
13.563997
 30
0.0
 10
23.591031
 20
13.544806
 30
0.0
 10
23.768955
 20
13.489575
 30
0.0
 10
23.929964
 20
13.402171
 30
0.0
 10
24.070245
 20
13.286432
 30
0.0
 10
24.185988
 20
13.146139
 30
0.0
 10
24.273380
 20
12.985131
 30
0.0
 10
24.328611
 20
12.807218
 30
0.0
 10
24.347867
 20
12.616182
 30
0.0
  0
LWPOLYLINE
  5
108
100
AcDbEntity
  8
Layer_1
 62
7
100
AcDbPolyline
 90
33
 70
1
 10
24.347867
 20
24.416176
 30
0.0
 10
24.328611
 20
24.225148
 30
0.0
 10
24.273381
 20
24.047224
 30
0.0
 10
24.185988
 20
23.886213
 30
0.0
 10
24.070245
 20
23.745932
 30
0.0
 10
23.929963
 20
23.630187
 30
0.0
 10
23.768954
 20
23.542794
 30
0.0
 10
23.591030
 20
23.487563
 30
0.0
 10
23.400001
 20
23.468315
 30
0.0
 10
23.208973
 20
23.487563
 30
0.0
 10
23.031048
 20
23.542794
 30
0.0
 10
22.870039
 20
23.630187
 30
0.0
 10
22.729757
 20
23.745932
 30
0.0
 10
22.614014
 20
23.886213
 30
0.0
 10
22.526622
 20
24.047224
 30
0.0
 10
22.471391
 20
24.225148
 30
0.0
 10
22.452135
 20
24.416176
 30
0.0
 10
22.471394
 20
24.607203
 30
0.0
 10
22.526625
 20
24.785128
 30
0.0
 10
22.614018
 20
24.946135
 30
0.0
 10
22.729761
 20
25.086417
 30
0.0
 10
22.870043
 20
25.202162
 30
0.0
 10
23.031051
 20
25.289555
 30
0.0
 10
23.208976
 20
25.344785
 30
0.0
 10
23.400004
 20
25.364033
 30
0.0
 10
23.591032
 20
25.344785
 30
0.0
 10
23.768956
 20
25.289555
 30
0.0
 10
23.929965
 20
25.202162
 30
0.0
 10
24.070246
 20
25.086417
 30
0.0
 10
24.185990
 20
24.946135
 30
0.0
 10
24.273382
 20
24.785128
 30
0.0
 10
24.328614
 20
24.607203
 30
0.0
 10
24.347867
 20
24.416176
 30
0.0
  0
ENDSEC
  0
SECTION
  2
OBJECTS
  0
DICTIONARY
  5
C
330
0
100
AcDbDictionary
  3
ACAD_GROUP
350
D
  3
ACAD_MLINESTYLE
350
17
  0
DICTIONARY
  5
D
330
C
100
AcDbDictionary
  0
DICTIONARY
  5
1A
330
C
100
AcDbDictionary
  0
DICTIONARY
  5
17
330
C
100
AcDbDictionary
  3
STANDARD
350
18
  0
DICTIONARY
  5
19
330
C
100
AcDbDictionary
  0
ENDSEC
  0
EOF
